/* XPM */
static char *_3af65e77bcf4e72dd6f43bf567b8342fZyDp340ygXAx6Yu[] = {
/* columns rows colors chars-per-pixel */
"64 64 5 1 ",
"  c None",
". c black",
"X c #A27500",
"o c #CA9200",
"O c #F9B400",
/* pixels */
"                                                                ",
"                                                                ",
"                                                                ",
"                                                                ",
"                            ..........                          ",
"                        ....OOOOOOOOOO....                      ",
"                      ..OOOOOOOOOOOOOOOOOO..                    ",
"                    ..OOOOOOOOOOOOOOOOOOOOOO..                  ",
"                  ..OOOOOOOOOOOOOOOOOOOOOOOOOO..                ",
"                 .OOOOOOOOOOOOOOOOOOOOOOOOOOOOOO.               ",
"                .ooooOOOOOOOOOOOOOOOOOOOOOOOOOOOO.              ",
"               .ooooooooOOOOOOOOOOOOOOOOOOOOOOOOOO.             ",
"              .ooooooooooooOOOOOOOOOOOOOOOOOOOOOOOO.            ",
"             .ooooooooooooooooOOOOOOOOOOOOOOOOOOOOOO.           ",
"            .oooooooooooooooooooOOOOOOOOOOOOOOOOOOOOO.          ",
"           .ooooooooooooooooooooooOOOOOOOOOOOOOOOOOOOO.         ",
"           .oooooooooooooooooooooooOOOOOOOOOOOOOOOOOOO.         ",
"          .ooooooooooooooooooooooo.ooOOOOOOOOOOOOOOOOOO.        ",
"         .ooooooooooooooooooooooo.O.ooOOOOOOOOOOOOOOOOOO.       ",
"         .oooooooooooooooooooooo.OOO.ooOOOOOOOOOOOOOOOOO.       ",
"         .ooooooooooooooooooooo.OOOOO.ooOOOOOOOOOOOOOOOO.       ",
"        .oooooooooooooooooooooX.OOOOO.oooOOOOOOOOOOOOOOOO.      ",
"        .oooooooooooooooooooooX.OOOOO.ooooOOOOOOOOOOOOOOO.      ",
"       .ooooooooooooooooooooooX.OOOOO.oooooOOOOOOOOOOOOOOO.     ",
"       .ooooooooooooooooooooooX.OOOOO.ooooooOOOOOOOOOOOOOO.     ",
"       .ooooooooooooooooooooooX.OOOOO.ooooooOOOOOOOOOOOOOO.     ",
"       .ooooooooooooooooooooooX.OOOOO.oooooooOOOOOOOOOOOOO.     ",
"      .oooooooooooooooooooooooX.OOOOO.oooooooOOOOOOOOOOOOOO.    ",
"      .oooooooooooooooooooooooX.OOOOO.ooooooooOOOOOOOOOOOOO.    ",
"      .oooooooooooooooooooooooX.OOOOO.ooooooooOOOOOOOOOOOOO.    ",
"      .oooooooooooooooooooooooX.OOOOO.oooooooooOOOOOOOOOOOO.    ",
"      .oooooooooooooooooooooooX.OOOOO.oooooooooOOOOOOOOOOOO.    ",
"      .oooooooooooooooooooooooX.OOOOO.ooooooooooOOOOOOOOOOO.    ",
"      .oooooooooooooooooooooooX.OOOOO.ooooooooooOOOOOOOOOOO.    ",
"      .oooooooooooooooooooooooX.OOOOO.ooooooooooOOOOOOOOOOO.    ",
"      .oooooooooooooooooooooooX.OOOOO.ooooooooooOOOOOOOOOOO.    ",
"      .oooooooooooooooooooooooX.OOOOO.ooooooooooOOOOOOOOOOO.    ",
"      .oooooooooooooooooooooooX.OOOOO.ooooooooooOOOOOOOOOOO.    ",
"       .ooooooooooooooooooooooX.OOOOO.ooooooooooOOOOOOOOOO.     ",
"       .ooooooooooooooooooooooX.OOOOO.ooooooooooOOOOOOOOOO.     ",
"       .ooooooooooooooooooooooX.OOOOO.ooooooooooOOOOOOOOOO.     ",
"       .ooooooooooooooooooooooX.OOOOO.ooooooooooOOOOOOOOOO.     ",
"        .oooooooooooooooooooooX.OOOOO.oooooooooooOOOOOOOO.      ",
"        .oooooooooooooooooooooX.OOOOO.oooooooooooOOOOOOOO.      ",
"         .ooooooooooooooooooooXX.OOO.ooooooooooooOOOOOOO.       ",
"         .oooooooooooooooooooooXX.O.oooooooooooooOOOOOOO.       ",
"         .ooooooooooooooooooooooXX.ooooooooooooooOOOOOOO.       ",
"          .oooooooooooooooooooooooXooooooooooooooOOOOOO.        ",
"           .oooooooooooooooooooooooooooooooooooooOOOOO.         ",
"           .oooooooooooooooooooooooooooooooooooooOOOOO.         ",
"            .oooooooooooooooooooooooooooooooooooOOOOO.          ",
"             .ooooooooooooooooooooooooooooooooooOOOO.           ",
"              .oooooooooooooooooooooooooooooooooOOO.            ",
"               .ooooooooooooooooooooooooooooooooOO.             ",
"                .oooooooooooooooooooooooooooooooO.              ",
"                 .oooooooooooooooooooooooooooooo.               ",
"                  ..oooooooooooooooooooooooooo..                ",
"                    ..oooooooooooooooooooooo..                  ",
"                      ..oooooooooooooooooo..                    ",
"                        ....oooooooooo....                      ",
"                            ..........                          ",
"                                                                ",
"                                                                ",
"                                                                "
};
