/* XPM */
static char *_d73e3d3cf66442985786ec148bdbc58uWUDr8fYxUfn0tPC[] = {
/* columns rows colors chars-per-pixel */
"64 64 9 1 ",
"  c None",
". c black",
"X c #3F3F3F",
"o c #777777",
"O c #C96E27",
"+ c #FFB500",
"@ c #817F94",
"# c #AFB0B4",
"$ c gray74",
/* pixels */
"                                                                ",
"                                                                ",
"                                                                ",
"                                                                ",
"                                                                ",
"                                                                ",
"                                                                ",
"                                   ........                     ",
"                              ...............                   ",
"                          ..........XXXXXX....                  ",
"                       ........XXXXXXXXXXXX....                 ",
"                     ......XXXXXXXXXXXXXXXXX.....               ",
"                   ......XXXXXXXXXXXXXXXXXXXX.....              ",
"                  ....XXXXXXXXXXXXXXXXXXXXXXXXX....             ",
"                  ..XXXXXXXXXXXXXXXXXXXXXXXXXXXX.....           ",
"                ..XXXXXXXXXXXXXXXXXXXXXXXXXXXXXXX.....          ",
"                ..XXXXXXXXXXXXXXXXXXXXXXXXXXXXXXXX....          ",
"                ..XXXXXXXXXXXXXXXXXXXXXXXXXXXXXXXXX..           ",
"                ..XXXXXXXXXXXXXXXXXXXXXXXXXXXXXXXXX..           ",
"              ..XXXXXXXXXXXXXXXXXXXXXXXXXXXXXXXXXXX..           ",
"              ..XXXXXXXXXXXXXXX...................X...          ",
"              ..XXXXXXXXXXXXXX.@@@@@@@@@@@@@@@@@@..X..          ",
"              ..XXXXXXXXXXXXX.@@@@@@@@@@@@@@@@@@@.....          ",
"              ..XXXXXXXXXXXX.@@@@++++++++++++++++@@...          ",
"              ..XXXXXXXXXXX.@@@@@++++++++++++++++@@...          ",
"              ..XXXXXXXXX..@@@@@@+++++++++++++++++@@@.          ",
"              ..XXXXXXXXX..@@@@++++++++++++++++++++@@.          ",
"              ..XXXXXXXXX..@@@@++++++++++++++++++++@@.          ",
"            ....XXXXXXXXX..@@@@++++++++++++++++++++@@.          ",
"     ...........XXXXXXXXX..@@@@++++++++++++++++++++@@.          ",
"     .........XXXXXX........@@@+++++++@@@@@@@@@++++@@.          ",
"     ..#####..XXXXXX.      .@@@+++++++@@@@@@@@@++++@@.          ",
"     ..#####........       ....@@@@@@@@@@@@@@@@@@@@@@.          ",
"     ..####.........       ....@@@@@@@@@@@@@@@@@@@@@@.          ",
"     ..##############          ..@@@@@@@@@@@@@@@@@@..           ",
"     ...###........ ###########...@@@@@@@@@@@@@@@@@.            ",
"      ..###................######....@@@@@@@@@@@@..             ",
"      ..##########.........######....@@@@@@@@@@@@.              ",
"      ..##..######..OOOOO......# ..........@@@@@@.              ",
"      ..##..######..OOOOO......# ..........@@@@@@.              ",
"      .......#####..OOOOOOOOOOO..XXXXXXXXX..@@@@@.              ",
"      .......#####..OOOOOOOOOOOOXXXXXXXXXXX.......              ",
"          ..######..OOOOOOOOOOOOOOOOO........................   ",
"          ..######..OOOOOOOOOOOOOOOOOooooooooooo..oooooooo$$.   ",
"          ..######..OOOOOOOOOOOOOOOOOooXXXXXXXXXXXoooooooo$$.   ",
"          ..######.........OOOOOOOOOOoXXXXXXXXXXXXoooooooo$$.   ",
"          ..######.........OOOOOOOOOOoXXXXXXXXXXXXoooooooooo.   ",
"          ..###################OOOOOOooooooooooooooooooooooo.   ",
"          ..####OOOOOOOOOOOOOOOOOOOOO........................   ",
"          ...###OOOOOOOOOOOOOOOOOOOOO.............              ",
"           ...##OOOOOOOOOOOOOOOOOOOOO.............              ",
"            ...#OOOOOOOOO.......................                ",
"             ..#OOOOOOOOO.......................                ",
"             ...OOOOOO..........................                ",
"              .....OOO........................                  ",
"               ...............      ..........                  ",
"                  ............      .......                     ",
"                       .....        ......                      ",
"                       .....        .....                       ",
"                                                                ",
"                                                                ",
"                                                                ",
"                                                                ",
"                                                                "
};
