/* XPM */
static char *_b97683597fd4334dc7b1b27f128baa3HedzWaPwu5tYVrwH[] = {
/* columns rows colors chars-per-pixel */
"64 64 9 1 ",
"  c None",
". c black",
"X c #513B16",
"o c #A74E0E",
"O c #C7AB26",
"+ c #E6B057",
"@ c #FFE04B",
"# c #F2E6AF",
"$ c white",
/* pixels */
"                          .................                     ",
"                       ...+++++++++oooooooo.....                ",
"                     ..+++++++++++++++++oooooooo....            ",
"                    .++++++++++++++++++++++++ooo.OOO..          ",
"                   .+++++++++++++++++++++++++++.OOOOOO.         ",
"                   ......++++++++++++++++++++++.OOOOOOO.        ",
"                    .OO.....++++++++++++++++++.OOOOOOOOO.       ",
"                     .OO.XXX......++++++++++++.OOOOOOOOOO.      ",
"                      .OO.XXXXXXXX......+++++++.OOOOOOOOO.      ",
"                       .OO.XXXXXXXXXXXXX...++++.OOOOOOOOOO.     ",
"                        .OO.XXXXXXXXXXXXXXX......OOOOOOOOO.     ",
"                         .OO.XXX$XX$XXXXXXXXXXX...OOOOOOOOO.    ",
"                         .OO.XX$$X$X$XXXXXXXXXXXX.OOOOOOOOO.    ",
"                          .OO.XX$$$XX$XXXXXXXXXXXX.OOOOOOOO.    ",
"                          .OO.X$$$$XXX$$XXXXXXXXXXX.OOOOOOOO.   ",
"                          .OO.$$$$$XXXX$$XXXXXXXXXX.OOOOOOOO.   ",
"                           .OO$XX$XXXXX$XXXXXXXXXXXX.OOOOOOO.   ",
"                           .OOO.XXXX$$$$XXXXXXXXXXXX.OOOOOOOO.  ",
"                            .OO.XXX$XX$$XXXXXXXXXXXX.OOOOOOOO.  ",
"                            .OO$$$$XXX$X$XXXXXXXXXXXX.OOOOOOO.  ",
"                            ...$$$$$$X$XX$XXXXXXXXXXX.OOOOOOO.  ",
"                          ..OOO$$$$$$$$$$$XXXXXXXXXXX.OOOOOOO.  ",
"                        ..#OOO$$$$$$$$$$$$$$XXXXXXXXXX.OOOOOO.  ",
"                      ..##OOO.$$$$$$$$$$$$$$XXXXXXXXXX.OOOOO.   ",
"                   ...##OOO..X$$$$$$$$$$$$$......XXXXX.OOOOO.   ",
"                 ..####OO..XXX$$$$$$$$$$$$$OOOO....XXXX.OOOO.   ",
"               ..#####...XXXX$$$$$$$$$$$$$$OOOOOOO.......OOO.   ",
"             ..#####..XXXXXXX$$$$$$$$$$$$$$...OOOOOOOOO...O.    ",
"         ....#####..XXXXXXXX$$$$$$$$$$$$$$$XXX...OOOOOOO...     ",
"       .....####..XXXXXXXXXX$$$$$$$$$$$$$$XXXXXXX....OOO...     ",
"       .####....XXXXXXXXXXX$$$$$$$$$$$$$$$XXXXXXXXXXX...OO.     ",
"       .######...XXXXXXXXX$$$$$$$$$$$$$$$XXXXXXXXXXX..OOOO.     ",
"       .#########...XXXXX$$$$$$$$$$$$$$$$XXXXXXXXXX.OOOOOO.     ",
"       ..###########...XX$$$$$$$$$$$$$$$$XXXXXXXX..OOOOOOO.     ",
"         ...###########.....$$$$$$$$$$$$XXXXXXX..@OOOOOOOO.     ",
"         .oo..############......$$$$$$$$XXXXX..@@OOOOOOOO..     ",
"         .oooo...###########...X..$$$$$XXXX..@@@OOOOOO....      ",
"         .++ooooo...###########...$$$$$X...@@@OOOOOO..ooo.      ",
"         .++++ooo. ...#############.....@@@@@OOOOO..ooooo.      ",
"         .+++++oo.    ...############@@@@@$@OOOO..ooooooo.      ",
"         .++++++o.  ..   ...########@@@$$@@OOO..ooooooooo.      ",
"         .+++++++.  . ...  ...#####@@$$@@@@O..ooooooooooo.      ",
"         .+++++++.  .  ..  ..o...#@@@@@@@@..ooooooooooooo.      ",
"         .+++++++.  . ...  .ooooo.........ooooooooooooooo.      ",
"         .+++++++o.  ...   .o+ooooooooooooooooooooooooooo.      ",
"         .+++++++o.  ..   .o+++++++oooooooooooooooooooooo.      ",
"         .+++++++oo.      .+++++++++ooooooooooooooooooooo.      ",
"         .++++++++oo.   ..o++++++++++oooooooooooooooooooo..     ",
"       .....+++++++oo...oo+++++++++++ooooooooooooooooooo...     ",
"       .####..+++++ooooooo+++++++++++ooooooooooooooooo..OO.     ",
"       .######...+++ooooo++++++++++++ooooooooooooooo..OOOO.     ",
"       .#########...+++++++++++++++++oooooooooooooo.OOOOOO.     ",
"       ..###########...+++++++++++++ooooooooooooo..OOOOOOO.     ",
"         ...###########...+++++++++oooooooooooo..OOOOOOOOO.     ",
"            ..############..+++++++oooooooooo..OOOOOOOOO...     ",
"              ...###########...+++ooooooooo..OOOOOOOOO..        ",
"                 ...###########....ooooo...OOOOOOOOO..          ",
"                    ..#############.....O####OOOOO..            ",
"                      ...##########OOOOOOOOOOOOO..              ",
"                         ...#######OO###OOOOOO..                ",
"                            ..OOOOOOOOOOOOOO..                  ",
"                              ...OOOOOOOOO..                    ",
"                                 .........                      ",
"                                                                "
};
