/* XPM */
static char *cdc7cb6991ec489cf3b8bda39c07126e7K9H6esQ5xWL5QpU[] = {
/* columns rows colors chars-per-pixel */
"64 64 16 1 ",
"  c None",
". c black",
"X c #513B16",
"o c #AC3232",
"O c #A74E0E",
"+ c #B36D22",
"@ c #BB7777",
"# c #F24F4F",
"$ c #FF8E3E",
"% c #C7AB26",
"& c #EEBD3A",
"* c #E6B057",
"= c #FFE04B",
"- c #F5A9A9",
"; c #F2E6AF",
": c white",
/* pixels */
"                          .................                     ",
"                       ...*********OOOOOOOO.....                ",
"                     ..*****************OOOOOOOO....            ",
"                    .************************OOO.%%%..          ",
"                   .***************************.%%%%%%.         ",
"                   ......**********************.%%%%%%%.        ",
"                    .%%.....******************.%%%%%%%%%.       ",
"                     .%%.XXX......************.%%%%%%%%%%.      ",
"                      .%%.XXXXXXXX......*******.%%%%%%%%%.      ",
"                       .%%.XXXXXXXXXXXXX...****.%%%%%%%%%%.     ",
"                        .%%.XXXXXXXXXXXXXXX......%%%%%%%%%.     ",
"                         .%%.XXX$XX+XXXXXXXXXXX...%%%%%%%%%.    ",
"                         .%%.XX$$X+X+XXXXXXXXXXXX.%%%%%%%%%.    ",
"                          .%%.XX$+$XX+XXXXXXXXXXXX.%%%%%%%%.    ",
"                          .%%.X$&$$XXX++XXXXXXXXXXX.%%%%%%%%.   ",
"                          .%%.$$$$$XXXX++XXXXXXXXXX.%%%%%%%%.   ",
"                           .%%$XX$XXXXX+XXXXXXXXXXXX.%%%%%%%.   ",
"                           .%%%.XXXX++++XXXXXXXXXXXX.%%%%%%%%.  ",
"                            .%%.XXX+XX++XXXXXXXXXXXX.%%%%%%%%.  ",
"                            .%%....XXX+X+XXXXXXXXXXXX.%%%%%%%.  ",
"                            ....##o..X+XX+XXXXXXXXXXX.%%%%%%%.  ",
"                          ..%%%.#oo.#.....XXXXXXXXXXX.%%%%%%%.  ",
"                        ..;%%%..#oo.###oo...XXXXXXXXXX.%%%%%%.  ",
"                      ..;;%%%..##oo.##oo.#o.XXXXXXXXXX.%%%%%.   ",
"                   ...;;%%%..X.#oo.##oo.#o.......XXXXX.%%%%%.   ",
"                 ..;;;;%%..XXX.#...#oo.##o.%%%%....XXXX.%%%%.   ",
"               ..;;;;;...XXXX...--...o.##o.%%%%%%%.......%%%.   ",
"             ..;;;;;..XXXXXXX.-------..#oo....%%%%%%%%%...%.    ",
"         ....;;;;;..XXXXXXXX.--------@@.oo.XXX...%%%%%%%...     ",
"       .....;;;;..XXXXXXXXXX.-------@@@@..XXXXXXX....%%%...     ",
"       .;;;;....XXXXXXXXXXX.......@@@@@@@.XXXXXXXXXXX...%%.     ",
"       .;;;;;;...XXXXXXXXX.###ooo..@@@@@.XXXXXXXXXXX..%%%%.     ",
"       .;;;;;;;;;...XXXXX.##oooo.#o.@@@@.XXXXXXXXXX.%%%%%%.     ",
"       ..;;;;;;;;;;;...XX.#ooooo.#oo..@@.XXXXXXXX..%%%%%%%.     ",
"         ...;;;;;;;;;;;.....ooo.#ooo....XXXXXXX..=%%%%%%%%.     ",
"         .OO..;;;;;;;;;;;;......ooo.ooo.XXXXX..==%%%%%%%%..     ",
"         .OOOO...;;;;;;;;;;;...X..o.oo.XXXX..===%%%%%%....      ",
"         .**OOOOO...;;;;;;;;;;;........X...===%%%%%%..OOO.      ",
"         .****OOO. ...;;;;;;;;;;;;;.....=====%%%%%..OOOOO.      ",
"         .*****OO.    ...;;;;;;;;;;;;=====:=%%%%..OOOOOOO.      ",
"         .******O.  ..   ...;;;;;;;;===::==%%%..OOOOOOOOO.      ",
"         .*******.  . ...  ...;;;;;==::====%..OOOOOOOOOOO.      ",
"         .*******.  .  ..  ..O...;========..OOOOOOOOOOOOO.      ",
"         .*******.  . ...  .OOOOO.........OOOOOOOOOOOOOOO.      ",
"         .*******O.  ...   .O*OOOOOOOOOOOOOOOOOOOOOOOOOOO.      ",
"         .*******O.  ..   .O*******OOOOOOOOOOOOOOOOOOOOOO.      ",
"         .*******OO.      .*********OOOOOOOOOOOOOOOOOOOOO.      ",
"         .********OO.   ..O**********OOOOOOOOOOOOOOOOOOOO..     ",
"       .....*******OO...OO***********OOOOOOOOOOOOOOOOOOO...     ",
"       .;;;;..*****OOOOOOO***********OOOOOOOOOOOOOOOOO..%%.     ",
"       .;;;;;;...***OOOOO************OOOOOOOOOOOOOOO..%%%%.     ",
"       .;;;;;;;;;...*****************OOOOOOOOOOOOOO.%%%%%%.     ",
"       ..;;;;;;;;;;;...*************OOOOOOOOOOOOO..%%%%%%%.     ",
"         ...;;;;;;;;;;;...*********OOOOOOOOOOOO..%%%%%%%%%.     ",
"            ..;;;;;;;;;;;;..*******OOOOOOOOOO..%%%%%%%%%...     ",
"              ...;;;;;;;;;;;...***OOOOOOOOO..%%%%%%%%%..        ",
"                 ...;;;;;;;;;;;....OOOOO...%%%%%%%%%..          ",
"                    ..;;;;;;;;;;;;;.....%;;;;%%%%%..            ",
"                      ...;;;;;;;;;;%%%%%%%%%%%%%..              ",
"                         ...;;;;;;;%%;;;%%%%%%..                ",
"                            ..%%%%%%%%%%%%%%..                  ",
"                              ...%%%%%%%%%..                    ",
"                                 .........                      ",
"                                                                "
};
