/* XPM */
static char *_97183fc48904010bfa1f307a270aae86M50JnjqOEavAw86[] = {
/* columns rows colors chars-per-pixel */
"64 64 12 1 ",
"  c None",
". c black",
"X c #2C2C2C",
"o c #63291A",
"O c #C35F18",
"+ c #F47B26",
"@ c #FF9D58",
"# c #3D9DA8",
"$ c #51E5F6",
"% c #C6C6C6",
"& c #FDFDFD",
"* c white",
/* pixels */
"                                                                ",
"                                                                ",
"                          ............                          ",
"                       ..*************...                       ",
"                      .*$$$$#$####$#$****.                      ",
"                     .*#####........#####*.                     ",
"                    .*#$....oooooooo....$#*.                    ",
"                   .*#$.oooooooooooooooo.$#*.                   ",
"                  .*#$.ooOOoOOOOOOOOoOOoo.$#*.                  ",
"                 .*#$.ooOOOoOOOOOOOOoOOOoo.$#*.                 ",
"                .*#$.ooOOOOoOOOOOOOOoOOOOoo.$#*.                ",
"               .*#$.ooOOOOOoOOOOOOOOoOOOOOoo.$#*.               ",
"               .*#.oooOOOOOoOOOOOOOOoOOOOOOoo.#**               ",
"              .*#.ooOoOOOOOoOOOOOOOOoOOOOOOooo.#*.              ",
"             .*##.oOOoOOOOOoOOOOOOOOoOOOOOOoOo.##*.             ",
"             .*##.oOOoOOOOOoOOOOOOOOoOOOOOOoOo.##*.             ",
"             .*$.ooOOoOOOOOoOOOOOOOOoOOOOOOoOoo.$*.             ",
"            .$##.oOOOoOOOOOoOOOOOOOOoOOOOOOoOOo.##$.            ",
"            .$#.ooOOOoOOOOOoOOOOOOOOoOOOOOOoOOOo.#$.            ",
"            .$$.oOOOOoOOOOOoOOOOOOOOoOOOOOOoOOOo.$$.            ",
"            .$#.oOOOOoOOOOOoOOOOOOOOoOOOOOOoOOOo.#$.            ",
"            .$#oooooooooooooooooooooooooooooooooo#$.            ",
"            .$o@@@@@@@@@@@@@@@@@@@@@@@@@@@@@@@@@@o$.            ",
"            .$o+**++**++**++**+**+**++**++**++**+o$.            ",
"            .$o+%%OO%%OO%%OO%%O%%O%%OO%%OO%%OO%%+o$.            ",
"            .$o+OOOOOOOOOOOOOOOOOOOOOOOOOOOOOOOO+o$.            ",
"            .$#oooooooooooooooooooooooooooooooooo#$.            ",
"            .$$.oooooooooooooooooooooooooooooooo.$$.            ",
"            .$#.OOOOOoOOOOOoOOOOOOOOoOOOOOOoOOOO.#$.            ",
"            .$#.OOOOOoOOOOOoOOOOOOOOoOOOOOOoOOOO.#$.            ",
"            .$#.OOOOOoOOOOOoOOOOOOOOoOOOOOOoOOOO.#$.            ",
"            .$$.OOXOOoOOOOOoOOOOOOOOoOOOOOOoOOOO.$$.            ",
"            .$#.OX%XOoOOOOOoOOOOOOOOoOOOOOOoOOOO.#$.            ",
"            .$#.OX%XOoOOOOOoOOOOOOOOoOOOOOOoOOOO.#$.            ",
"            .$#.OOXOOoOOOOOoOOOOOOOOoOOOOOOoOOOO.#$.            ",
"            .$$.OOXOOoOOOOOoOOOOOOOOoOOOOOOoOOOO.$$.            ",
"            .$#.OOXOOoOOOOOoOOOOOOOOoOOOOOOoOOOO.#$.            ",
"            .$#.OOXOOoOOOOOoOOOOOOOOoOOOOOOoOOOO.#$.            ",
"            .$#.OOXOOoOOOOOoOOOOOOOOoOOOOOOoOOOO.#$.            ",
"            .$$.OOXOOoOOOOOoOOOOOOOOoOOOOOOoOOOO.$$.            ",
"            .$#.OX%XOoOOOOOoOOOOOOOOoOOOOOOoOOOO.#$.            ",
"            .$#.OX%XOoOOOOOoOOOOOOOOoOOOOOOoOOOO.#$.            ",
"            .$#.OOXOOoOOOOOoOOOOOOOOoOOOOOOoOOOO.#$.            ",
"            .$$.OOOOOoOOOOOoOOOOOOOOoOOOOOOoOOOO.$$.            ",
"            .$#.OOOOOoOOOOOoOOOOOOOOoOOOOOOoOOOO.#$.            ",
"            .$#.OOOOOoOOOOOoOOOOOOOOoOOOOOOoOOOO.#$.            ",
"            .$#.OOOOOoOOOOOoOOOOOOOOoOOOOOOoOOOO.#$.            ",
"            .$#oooooooooooooooooooooooooooooooooo#$.            ",
"            .$o@@@@@@@@@@@@@@@@@@@@@@@@@@@@@@@@@@o$.            ",
"            .$o+**++**++**++**+**+**++**++**++**+o$.            ",
"            .$o+%%OO%%OO%%OO%%O%%O%%OO%%OO%%OO%%+o$.            ",
"            .$o+OOOOOOOOOOOOOOOOOOOOOOOOOOOOOOOO+o$.            ",
"            .$#oooooooooooooooooooooooooooooooooo#$.            ",
"            .$$.oooooooooooooooooooooooooooooooo.$$.            ",
"            .$#.OOOOOoOOOOOoOOOOOOOOoOOOOOOoOOOO.#$.            ",
"            .$$.OOOOOoOOOOOoOOOOOOOOoOOOOOOoOOOO.$$.            ",
"            .$#.OOOOOoOOOOOoOOOOOOOOoOOOOOOoOOOO.#$.            ",
"            .$#.OOOOOoOOOOOoOOOOOOOOoOOOOOOoOOOO.#$.            ",
"             ......................................             ",
"                                                                ",
"                                                                ",
"                                                                ",
"                                                                ",
"                                                                "
};
