/* XPM */
static char *_d842d91ad244cad9e2f44bd3ecfedc1N6aiClKGAESffTWi[] = {
/* columns rows colors chars-per-pixel */
"64 64 8 1 ",
"  c None",
". c black",
"X c #003B2C",
"o c #6A3800",
"O c #007959",
"+ c #004D79",
"@ c #BB6200",
"# c #00B787",
/* pixels */
"                                                                ",
"                            ......                              ",
"                        ....@@.@@@..                            ",
"         .              ....@@.@@@..             .              ",
"         .            ..@@@@@@.@@@@@.            .              ",
"        .#.         ..oo@@@..@.@.@@@@.          .#.             ",
"        .#.        .oooo@..#.@.@...@@@..        .#.             ",
"       .O##.       .ooo..###.@.@.##.@@@@.      .##O.            ",
"       .#O..      .oo..XX###.@.@.###..@@@.     ..O#.            ",
"      .+O..#.     .o.XXXXX##.@.@.####..@@@.   .#..O+.           ",
"      .+.###.    .oo.XXXX#X#.@.@.X#####.@@@.  .###.+.           ",
"     .++.#.##.   .o.XXXXXX#X.@.@.XX###X#.@@. .##.#.++.          ",
"     .+..#.++.   .o.XXXXX#X#.@.@.XXX#X#X#.@. .++.#..+.          ",
"      .++.++.  ..oo..........@.@..........@.  .++.++.           ",
"       .+++.   ..ooooooooo@@@@.@@@@@@@@@@@@@.  .+++.            ",
"        ...   ...............................   ...             ",
"        .o.   .ooooooooooooooo.@@@@@@@@@@@@@.   .o.             ",
"        .o.   .ooooooooooooooo.@@@@@@@@@@@@@.   .o.             ",
"        .o.   .ooooooooooooooo.@@@@@@@@@@@@@.   .o.             ",
"        .o.....ooooooooooooooo.@@@@@@@@@@@@@.....o.             ",
"        .ooooo.ooooooooooooooo.@@@@@@@@@@@@@.ooooo.             ",
"        .......ooooooooooooooo.o@@@@@@@@@@@@.......             ",
"              .ooooooooooooooo.o@@@@@@@@@@@@.                   ",
"              .ooooooooooooooo.oo@@@@@@@@@@@.                   ",
"              .ooooooooooooooo.oo@@@@@@@@@@@.                   ",
"              .ooooooooooooooo.ooo@@@@@@@@@@.                   ",
"              .ooooooooooooooo.ooo@@@@@@@@@@.                   ",
"              .ooooooooooooooo.oooo@@@@@@@@@.                   ",
"              .ooooooooooooooo.oooo@@@@@@@@@.                   ",
"              .ooooooooooooooo.oooo@@@@@@@@@.                   ",
"              .ooooooooooooooo.oooo@@@@@@@@@.                   ",
"              .ooooooooooooooo.oooo@@@@@@@@@.                   ",
"              .ooooooooooooooo.oooo@@@@@@@@@.                   ",
"              .ooooooooooooooo.oooo@@@@@@@@@.                   ",
"              .ooooooooooooo.o.o.oo@@@@@@@@@.                   ",
"              .ooooooooooooo.o.o.oo@@@@@@@@@.                   ",
"              .ooooooooooooo.o.o.oo@@@@@@@@@.                   ",
"              .ooooooooooooo.o.o.oo@@@@@@@@@.                   ",
"              .ooooooooooooo.o.o.oo@@@@@@@@@.                   ",
"              .ooooooooooooo.o.o.oo@@@@@@@@@.                   ",
"              .ooooooooooooooo.oooo@@@@@@@@@.                   ",
"              .ooooooooooooooo.oooo@@@@@@@@@.                   ",
"              .ooooooooooooooo.oooo@@@@@@@@@.                   ",
"              .ooooooooooooooo.oooo@@@@@@@@@.                   ",
"              .ooooooooooooooo.oooo@@@@@@@@@.                   ",
"              .ooooooooooooooo.oooo@@@@@@@@@.                   ",
"              .ooooooooooooooo.oooo@@@@@@@@@.                   ",
"              .ooooooooooooooo.oooo@@@@@@@@@.                   ",
"              .ooooooooooooooo.oooo@@@@@@@@@.                   ",
"              .ooooooooooooooo.oooo@@@@@@@@@.                   ",
"              .ooooooooooooooo.oooo@@@@@@@@@.                   ",
"              .ooooooooooooooo.oooo@@@@@@@@@.                   ",
"              .ooooooooooooooo.oooo@@@@@@@@@.                   ",
"              .ooooooooooooooo.oooo@@@@@@@@@.                   ",
"              .ooooooooooooooo.oooo@@@@@@@@@.                   ",
"              .ooooooooooooooo.oooo@@@@@@@@@.                   ",
"              .ooooooooooooooo.oooo@@@@@@@@@.                   ",
"              .ooooooooooooooo.oooo@@@@@@@@@.                   ",
"              .ooooooooooooooo.oooo@@@@@@@@@.                   ",
"              .ooooooooooooooo.oooo@@@@@@@@@.                   ",
"              ...............................                   ",
"                                                                ",
"                                                                ",
"                                                                "
};
