/* XPM */
static char *_218afbe09594982dac284d317413a8424iVxoPEiVeSCNIG[] = {
/* columns rows colors chars-per-pixel */
"64 64 3 1 ",
"  c black",
". c #199126",
"X c #09FF23",
/* pixels */
"                                                                ",
" .............................................................. ",
" .............................................................. ",
" .......................... .......... ........................ ",
" .........................  .........  .... ................... ",
" ........  .......... ....  .... ....  ...X .............  .... ",
" ........ ........... ... X .... ....  .. X .............  .... ",
" ........ ..........  ... X ...  ....  .. X .............  .... ",
" .......  ..........  ... X ...XX... X . .XX ........... X .... ",
" ...... X .... .....  ... X .. XX .. X ...XX ........... X .... ",
" ...... X ... X ....  ... X .. XX .. XX ..XX ........... X .... ",
" ..... XX .. .X ... X ... X . .XX .. .X ...X ........... X .... ",
" ..... XX .. .X ... X ... X . .XX .. .X ...X ........... X .... ",
" .... .XX .. .X ... X .. .XX ..XX .. .X ...X .......... XX .... ",
" ... ..XX .. .X .. .X .. .XX ..XX . ..X ...X .......... XX .... ",
" ... ..XX .. .X .. .X .. .XX ..XXX  ..X ...XX ......... XX .... ",
" .. ...XX .. .X ....X .. .XX ..XXX  ..X ...XX ......... XX .... ",
" .... .XX .. .XX ...X .. .XX ..XXX  ..X ...XX ......... XX .... ",
" .... .XX . ..XX ...X .. .XX ..XXX  ..X ...XX ........ .XXX ... ",
" ...  .XX . .XXX ...XX . .XX ..XXX  ..X ....X ........ .XXX ... ",
" ...  .XX . .XXX ...XX . .XX ..XXX  ..X ....X ........ .XXX ... ",
" .. . .XX . .XXX ...XX . .XX ..XXX ...X ....XX ....... .XXX ... ",
" .. . .XX . .XXX ...XX . .XX ..XXX  ..XX ...XX ....... .XXX ... ",
" .... .XX . .XXX ...XX . .XX ..XXX  ..XX ...XX ...... ..XXX ... ",
" .... .XX . .XXX ...XX . .XX ..XXX  ..XX ....  ...... ..XXX ... ",
" .... .XX . .XXX ...XX  ..XX ..XXX  ..XX ... ........ ..XXX ... ",
" .... .XX . .XXX ...XX  ..XX ..XXX ...XX .. X ....... ..XXX ... ",
" .... .XX . .XXX ...XX  ..XX ..XX ....XX .. X ...... ...XXX ... ",
" .... .XX . .XXX ...XX  ..XX ..XX ....XX .. X ...... ...XXX ... ",
" .... .XX . .XXX ...XX  ..XXX .XX ....XX . .X ...... ...XXX ... ",
" ... ..XX . ..XXX ..XX  ..XXX ..X ....XX . .X ...... ...XXX ... ",
" ... ..XX . .XXXX ..XX  ..XXX ........XX . .XX ..... ....XX ... ",
" ... ..XX  ..XXXX ..XX  ..XXX ........XX . .XX .... .....XX ... ",
" ... ..XXX ..XXXX ..XX  ..XXX ........XX  ..XX .... .....XX ... ",
" ... ..XXX ..XXXX ..XXX ..XXX ........XX  ...X .... .....XX ... ",
" ... ..XXX ..XXXX ..XXX ..XXX ........XXX ...X .... .....XX ... ",
" ... ..XXX ..XXXX ..XXX ..XXX ........XXX ...X .... .....XX ... ",
" ... ..XXX ..XXXX ..XX ...XXX ........XXX ...X ... ......XX ... ",
" ... ..XXX ..XXXX ..XX ...XXX ........XXX ...XX .. ......XX ... ",
" ... ..XXX...XXXX ..XX ...XXX ........XXX ...XX .. ......XX ... ",
" ... ..XXX...XXXX ..XX ...XXX ........XXX ...XX .........XX ... ",
" ... ........XXXX ..XX ...XXX ........XXX ...XX .........XX ... ",
" ............XXXX ..XX ...XXX ........XXX ...XX .........XX ... ",
" ............XXXX ........XXX ........XXX ...XX .........XXX .. ",
" ............XXXXX .......XXX ........XXX ...XX .........XXX .. ",
" ............XXXXX .......XXX ........XXX ...XX ..........XX .. ",
" ............XXXXX .......XXXX .......XXX ...XXX .........XX .. ",
" ............XXXXX .......XXXX .......XXXX ...XX .........XX .. ",
" ............XXXXX .......XXXX .......XXXX ...XX ..........X .. ",
" ............XXXXX .......XXXX .......XXXX ...XX ..........X .. ",
" ............XXXXX .......XXXX .......XXXX ...XX ..........X .. ",
" .........................XXXX .......XXXX ...XX ..........X .. ",
" .........................XXXX .......XXXX ...XX ..........X .. ",
" .........................XXXX .......XXXX ...XXX .........X .. ",
" .........................XXXX ...............XXX .........X .. ",
" .............................................XXX .......... .. ",
" .............................................XXX ............. ",
" .............................................................. ",
" .............................................................. ",
" .............................................................. ",
" .............................................................. ",
" .............................................................. ",
" .............................................................. ",
"                                                                "
};
