/* XPM */
static char *_3ff0b3555c44741a904d76c8f107d048T62Mo9VH1r7D7rJ[] = {
/* columns rows colors chars-per-pixel */
"64 64 3 1 ",
"  c black",
". c #920000",
"X c white",
/* pixels */
"                                                                ",
" ....XXXXX X.XXX....X.. .....X...X. ........X.. .......... ..X. ",
" .....X..X .XX.......X. ....X...... ........... ....X..... .... ",
"                                                                ",
" .X.. X.XXXX.... .X.......... ........... ......XX.. .......... ",
" .... .X....XXX. .........X.. .....XXXX.. .......... ....X..... ",
"                                                                ",
" ....XXXXX X.XXX....X.. .....X...X. ........X.. .......... ..X. ",
" .....X..X .XX.......X. ....X...... ........... ....X..... .... ",
"                                                                ",
" .X.. X.XXXX.... .X.......... ........... ......XX.. .......... ",
" .... .X....XXX. .........X.. .....XXXX.. .......... ....X..... ",
"                                                                ",
" ....XXXXX X.XXX....X.. .....X...X. ........X.. .......... ..X. ",
" .....X..X .XX.......X. ....X...... ........... ....X..... .... ",
"                                                                ",
" .X.. X.XXXX.... .X.......... ........... ......XX.. .......... ",
" .... .X....XXX. .........X.. .....XXXX.. .......... ....X..... ",
"                                                                ",
" ....XXXXX X.XXX....X.. .....X...X. ........X.. .......... ..X. ",
" .....X..X .XX.......X. ....X...... ........... ....X..... .... ",
"                                                                ",
" .X.. X.XXXX.... .X.......... ........... ......XX.. .......... ",
" .... .X....XXX. .........X.. .....XXXX.. .......... ....X..... ",
"                                                                ",
" ....XXXXX X.XXX....X.. .....X...X. ........X.. .......... ..X. ",
" .....X..X .XX.......X. ....X...... ........... ....X..... .... ",
"                                                                ",
" .X.. X.XXXX.... .X.......... ........... ......XX.. .......... ",
" .... .X....XXX. .........X.. .....XXXX.. .......... ....X..... ",
"                                                                ",
" ....XXXXX X.XXX....X.. .....X...X. ........X.. .......... ..X. ",
" .....X..X .XX.......X. ....X...... ........... ....X..... .... ",
"                                                                ",
" .X.. X.XXXX.... .X.......... ........... ......XX.. .......... ",
" .... .X....XXX. .........X.. .....XXXX.. .......... ....X..... ",
"                                                                ",
" ....XXXXX X.XXX....X.. .....X...X. ........X.. .......... ..X. ",
" .....X..X .XX.......X. ....X...... ........... ....X..... .... ",
"                                                                ",
" .X.. X.XXXX.... .X.......... ........... ......XX.. .......... ",
" .... .X....XXX. .........X.. .....XXXX.. .......... ....X..... ",
"                                                                ",
" ....XXXXX X.XXX....X.. .....X...X. ........X.. .......... ..X. ",
" .....X..X .XX.......X. ....X...... ........... ....X..... .... ",
" ....XXXXX X.XXX....X.. .....X...X. ........X.. .......... ..X. ",
" .....X..X .XX.......X. ....X...... ........... ....X..... .... ",
"                                                                ",
" .X.. X.XXXX.... .X.......... ........... ......XX.. .......... ",
" .... .X....XXX. .........X.. .....XXXX.. .......... ....X..... ",
"                                                                ",
" ....XXXXX X.XXX....X.. .....X...X. ........X.. .......... ..X. ",
" .....X..X .XX.......X. ....X...... ........... ....X..... .... ",
"                                                                ",
" .X.. X.XXXX.... .X.......... ........... ......XX.. .......... ",
" .... .X....XXX. .........X.. .....XXXX.. .......... ....X..... ",
"                                                                ",
" ....XXXXX X.XXX....X.. .....X...X. ........X.. .......... ..X. ",
" .....X..X .XX.......X. ....X...... ........... ....X..... .... ",
"                                                                ",
" .X.. X.XXXX.... .X.......... ........... ......XX.. .......... ",
" .... .X....XXX. .........X.. .....XXXX.. .......... ....X..... ",
"                                                                ",
"                                                                "
};
