/* XPM */
static char *_7c4a6e23adb49c190606ca59f8aef9bZCEDANhk8y9LURpY[] = {
/* columns rows colors chars-per-pixel */
"64 64 21 1 ",
"  c None",
". c black",
"X c #202020",
"o c gray17",
"O c #3B4048",
"+ c #1E4773",
"@ c #4B4B4B",
"# c #5D5D5D",
"$ c #686868",
"% c gray48",
"& c #997155",
"* c #D7976B",
"= c #3270B4",
"- c #7B889B",
"; c #5880AB",
": c #28FFFF",
"> c #A5A5A5",
", c gray72",
"< c #FFCBA7",
"1 c #83D1E6",
"2 c #FBFBFB",
/* pixels */
"                                                                ",
"                                                                ",
"                                                                ",
"                                                                ",
"              ......                                            ",
"              ......                                            ",
"              ..,,22..........................                  ",
"              ..,,22..........................                  ",
"              ..--,,22222222222222222222222222....              ",
"              ..--,,22222222222222222222222222....              ",
"              ..OO--222222222222222222222222222222..            ",
"              ..OO--222222222222222222222222222222..            ",
"        ......--,,222222,,222222222,,222222222222222..          ",
"        ......--,,222222,,222222222,,222222222222222..          ",
"        ..OO--,,2222,,--,,2222222--22222222222222222..          ",
"        ..OO--,,2222,,--,,2222222--22222222222222222..          ",
"          ..OO------OOOO,,22222OO--222222222,,2222,,22..        ",
"          ..OO------OOOO,,22222OO--222222222,,2222,,22..        ",
"            ......OOOO--22222OOOO222,,2222--2222,,2222..        ",
"            ......OOOO--22222OOOO222,,2222--2222,,2222..        ",
"          ..OOOOOOOOOO,,,,,OOOOOO2,,22--OO,,22--OO2222..        ",
"          ..OOOOOOOOOO,,,,,OOOOOO2,,22--OO,,22--OO2222..        ",
"      ....OOOO--OOOO--,,OO---OO22222OOOO,,  OOOOOO,,22..        ",
"      ....OOOO--OOOO--,,OO---OO22222OOOO,,  OOOOOO,,22..        ",
"      ..OOOO----OO----OO,,,,,OOOOOOO--,,OOOO****OO--,,..        ",
"      ..OOOO----OO----OO,,,,,OOOOOOO--,,OOOO****OO--,,..        ",
"        ....OO----OOOO,,222OO<::**OOOOOO****::<<**OO--..        ",
"        ....OO----OOOO,,222OO<::**OOOOOO****::<<**OO--..        ",
"            ..OOOOOO--222OO**<;;<<<<<<<<<<<<;;<<<<....          ",
"            ..OOOOOO--222OO**<;;<<<<<<<<<<<<;;<<<<....          ",
"            ..OOOO--,,,OO**<<<<<<<<<<<<<<<<<<<<<<<....          ",
"            ..OOOO--,,,OO**<<<<<<<<<<<<<<<<<<<<<<<....          ",
"          ..OOOO--,,,OOOO<<<<<<<<<<<<<<<<<<<<<<<<<....          ",
"          ..OOOO--,,,OOOO<<<<<<<<<<<<<<<<<<<<<<<<<....          ",
"          ....OOOOOOO&&**<<<<<<<<<<<<<<<<<<<<<<<<<..            ",
"          ....OOOOOOO&&**<<<<<<<<<<<<<<<<<<<<<<<<<..            ",
"              .......................####.........              ",
"              .......................####.........              ",
"              ..+++++======11111111##%%>>1111111==..            ",
"              ..+++++======11111111##%%>>1111111==..            ",
"              ..+++++======11111111##>>%%1111111==..            ",
"              ..+++++======11111111##>>%%1111111==..            ",
"              ..+++++======11111111##%%>>1111111==..            ",
"              ..+++++======11111111##%%>>1111111==..            ",
"                ...................##>>%%.........              ",
"                ...................##>>%%.........              ",
"                ..ooo@@@@@$$$$$$XXXXXXXXXXXX$$$$..              ",
"                ..ooo@@@@@$$$$$$XXXXXXXXXXXX$$$$..              ",
"                ..ooo@@@@@$$$$$$XXXXXXXXXXXX$$$$..              ",
"                ..ooo@@@@@$$$$$$XXXXXXXXXXXX$$$$..              ",
"                ..ooo@@@@@$$$$$$XXXXXXXXXXXX$$$$..              ",
"                ..ooo@@@@@$$$$$$XXXXXXXXXXXX$$$$..              ",
"                ..ooo@@@@@$$$$$$XXXXXXXXXXXX$$$$..              ",
"                ..................................              ",
"                ..................................              ",
"                     .......          .......                   ",
"                     .......          .......                   ",
"                     .....            .....                     ",
"                     .....            .....                     ",
"                                                                ",
"                                                                ",
"                                                                ",
"                                                                ",
"                                                                "
};
