/* XPM */
static char *monigote[] = {
/* columns rows colors chars-per-pixel */
"64 64 12 1 ",
"  c None",
". c black",
"X c #111C1A",
"o c #163832",
"O c #740000",
"+ c #402200",
"@ c #7C4200",
"# c #28685C",
"$ c #BF0000",
"% c #B7936A",
"& c #D3A97A",
"* c #EFC08A",
/* pixels */
"                                                                ",
"                                                                ",
"                                                                ",
"                                                                ",
"                                                                ",
"                                                                ",
"                                                                ",
"                                         .......                ",
"                                        .++++@@..               ",
"                                        .++@@@@@...             ",
"                                       .++@@@@@@@@..            ",
"                                      .+@@@@@@@@@@@..           ",
"                              .........++@@@@@@@@@@@..          ",
"                         ......+++++++++@@@@@@@@@@@@@.          ",
"                       ..+++++++++++++@@@@@@@@@@@@@@@.          ",
"                     ....++++++++@@@@@@@@@@@@@@@@@@@@.          ",
"                   ...+++++++++@@++@@@@@@@@@@@@@@@@@@.          ",
"                  ..++++++++++@@++++@@@@@@@@@@@@@@@@.           ",
"                  ..++++++++@@++++..............@@@@..          ",
"                  ..++++++++@++...&&&&&&&&*****.@@@...          ",
"                  .++++++++@+...&&&&&&&&&&*****.@@@@.           ",
"                 .+++++++@@++.&&&&&&&&&&&******.@@@..           ",
"                 .++++++++++..&&&&&&&&&&&******.@@@.            ",
"                .++++++++....&&&&&&&&&&&&******.....            ",
"               .+++++++++.&&%&&&&&&&..&*****..*..               ",
"                ..++++....&&%&&&&&&&..&*****..*..               ",
"                ...+++.&&%&%%&&&&&&&..******..*.                ",
"                .++++..&&%&&%&&&&&&&..******..*.                ",
"                .++++.&&&%%%%&&&&&&.............                ",
"                ......&&&&&&&&&&&&.OOOO$$$$$$$$.                ",
"                     .&&&&&&&&&&..OOOO$$$$$$$$$.                ",
"                     .&&&&&&&&..OOOOO$$$$$$$$$$..               ",
"                     .&&&&&...OOOOOOO$$$$$$$$$$$$..             ",
"                     ......OOOOOOOOO$$$$$$$$$$$$$$.             ",
"                    ..OOOOOOOOOOOOOO$$$$$$$$$$$$$$..            ",
"                  ..OOOOOOOOOOOOOOOO$$$$$$$$$$$$$$..            ",
"                ..OOOOOOOOOOOOOOOOOO$$$$$$$$$$$$$$.             ",
"             ...OOOOOOOOOOOOOOOOOOO$$$$$$$$$$$$$$..             ",
"          ...OOOOOOOOOOOOOOOOOOOOOO$$$$$$$$$$$$$$.              ",
"        ..OOOOOOOOOOOOOOOOOOOOOOOOO$$$$$$$$$$$$$$.              ",
"      ..OOOOOOOOOOOOOOOOOOOOOOOOOO$$$$$$$$$$$$$$$.              ",
"    ..OOOOOOOOOOOOOOOOOOOOOOOOOOOO$$$$$$$$$$$$$..               ",
" ...OOOOOOOOOOOOOOOOOOOOOOOOOOOOOO$$$$$...$$$..                 ",
" .OOOOOO.OOOOOOOOOOOOOOOOOOOOOOOO$$....###...#.                 ",
"  ...... .OOOOOOOOOOOOOOOOOOOOOO...###########.                 ",
"        ..OOOOOOOOOOOOOOOOOOOOO..oo############.                ",
"       .OOOOOOOOOOOOO....OOOOOO.ooo############.                ",
"      .OOOOOOOOOOOOO..ooo.OOOO.oooo############.                ",
"    ..OOOOOOOOOOOOOO.ooooo....ooooo############.                ",
"   .OOOOO...OOOOOOO.ooooooooooooooo###########..                ",
"   ......   .OOOO..ooooooooooooooo############.                 ",
"           .OOOO.ooooooooooooooooo############.                 ",
"      .....OOO..oooooooooooooooooo############.                 ",
"          ....  .oooooooooooooooo#############..                ",
"                .oooooooooooooooo##############.                ",
"               .ooooooooooooooooo##############.                ",
"             ...ooooooooooooooooo##############.                ",
"           ..oooooooooooooooooooo##############.                ",
"         ...oooooooooooooooooooo###############.                ",
"         ................ooooooo##############......            ",
"               .XXXXXXXXX.....oo########.......XXXX.            ",
"               .XXXXXXXXXXXX.............XXXXXXXXXXX.           ",
"               .XXXXXXXXXXX..        .....XXXXXXXXXX.           ",
"                ...........              ............           "
};
